<svg width="20" height="20" viewBox="0 0 20 20" fill="none" xmlns="http://www.w3.org/2000/svg">
<g clip-path="url(#clip0_7_71)">
<path d="M5.83331 15C4.91665 15 4.17498 15.75 4.17498 16.6667C4.17498 17.5833 4.91665 18.3333 5.83331 18.3333C6.74998 18.3333 7.49998 17.5833 7.49998 16.6667C7.49998 15.75 6.74998 15 5.83331 15ZM0.833313 1.66666V3.33332H2.49998L5.49998 9.65832L4.37498 11.7C4.24165 11.9333 4.16665 12.2083 4.16665 12.5C4.16665 13.4167 4.91665 14.1667 5.83331 14.1667H15.8333V12.5H6.18331C6.06665 12.5 5.97498 12.4083 5.97498 12.2917L5.99998 12.1917L6.74998 10.8333H12.9583C13.5833 10.8333 14.1333 10.4917 14.4166 9.97499L17.4 4.56666C17.4666 4.44999 17.5 4.30832 17.5 4.16666C17.5 3.70832 17.125 3.33332 16.6666 3.33332H4.34165L3.55831 1.66666H0.833313ZM14.1666 15C13.25 15 12.5083 15.75 12.5083 16.6667C12.5083 17.5833 13.25 18.3333 14.1666 18.3333C15.0833 18.3333 15.8333 17.5833 15.8333 16.6667C15.8333 15.75 15.0833 15 14.1666 15Z" fill="#909090"/>
</g>
<defs>
<clipPath id="clip0_7_71">
<rect width="20" height="20" fill="white"/>
</clipPath>
</defs>
</svg>
